#N canvas 0 185 2256 1255 12;
#X obj 463 90 bng 15 250 50 0 empty empty empty 17 7 0 10 -262144 -1
-1;
#X obj 463 114 openpanel;
#X obj 463 162 soundfiler;
#X floatatom 463 186 20 0 0 0 - - -;
#X msg 463 138 read -resize \$1 grain_array;
#N canvas 0 50 450 250 (subpatch) 0;
#X array grain_array 1.52915e+07 float 2;
#X coords 0 1 1.52915e+07 -1 500 200 1 0 0;
#X restore 713 161 graph;
#X obj 463 209 / 44100;
#X floatatom 463 233 20 0 0 0 - - -;
#X obj 151 158 line~;
#X obj 151 182 tabread4~ grain_array;
#X obj 149 367 dac~;
#X obj 396 286 pack f f;
#X msg 151 134 0 \, 1.52915e+07 500000;
#X obj 179 252 *~;
#X floatatom 175 211 5 0 0 0 - - -;
#X obj 179 287 clip~ -0.5 0.4;
#X obj 206 343 *~;
#X obj 214 315 hsl 128 15 0 1 0 0 empty empty empty -2 -8 0 10 -262144
-1 -1 15000 1;
#X obj 331 470 lop~;
#X obj 334 414 hsl 128 15 0 127 0 0 empty empty empty -2 -8 0 10 -262144
-1 -1 11700 1;
#X obj 347 437 mtof;
#X connect 0 0 1 0;
#X connect 1 0 4 0;
#X connect 2 0 3 0;
#X connect 3 0 6 0;
#X connect 3 0 11 0;
#X connect 4 0 2 0;
#X connect 6 0 7 0;
#X connect 7 0 11 1;
#X connect 8 0 9 0;
#X connect 9 0 13 0;
#X connect 12 0 8 0;
#X connect 13 0 15 0;
#X connect 14 0 13 1;
#X connect 15 0 18 0;
#X connect 16 0 10 0;
#X connect 16 0 10 1;
#X connect 17 0 16 1;
#X connect 18 0 16 0;
#X connect 19 0 20 0;
#X connect 20 0 18 1;
