#N canvas 0 69 1128 626 12;
#X obj 800 12 bng 15 250 50 0 empty empty empty 17 7 0 10 #fcfcfc #000000
#000000;
#X obj 800 36 openpanel;
#X obj 800 84 soundfiler;
#X floatatom 800 108 20 0 0 0 - - -, f 20;
#X msg 800 60 read -resize \$1 grain_array;
#N canvas 0 50 450 250 (subpatch) 0;
#X array grain_array 1.52915e+07 float 4 black black;
#X coords 0 1 1.52915e+07 -1 500 200 1;
#X restore 620 250 graph;
#X obj 800 131 / 44100;
#X floatatom 800 155 20 0 0 0 - - -, f 20;
#X obj 151 38 line~;
#X obj 151 62 tabread4~ grain_array;
#X obj 460 590 dac~;
#X msg 151 14 0 \, 1.52915e+07 500000;
#X obj 210 164 *~;
#X obj 460 536 *~;
#X obj 460 508 hsl 128 15 0 1 0 0 empty empty empty -2 -8 0 10 #fcfcfc
#000000 #000000 3700 1;
#X obj 249 333 hsl 128 15 0 127 0 0 empty empty empty -2 -8 0 10 #fcfcfc
#000000 #000000 8700 1;
#X obj 249 353 mtof;
#X obj 228 142 hsl 128 15 1 100 1 0 empty empty Distortion -2 -8 0
10 #ff8383 #000000 #000000 10750 1;
#X obj 230 410 vcf~;
#X obj 210 190 tanh~;
#X floatatom 259 373 5 0 0 0 - - -, f 5;
#X obj 210 100 tgl 15 0 empty empty empty 17 7 0 10 #fcfcfc #000000
#000000 1 1;
#N canvas 339 268 450 351 switch 0;
#X obj 40 126 *~;
#X obj 70 136 *~;
#X obj 90 80 * -1;
#X obj 90 109 + 1;
#X obj 63 26 inlet;
#X obj 13 26 inlet~;
#X obj 40 190 outlet~;
#X obj 100 190 outlet~;
#X connect 0 0 6 0;
#X connect 1 0 7 0;
#X connect 2 0 3 0;
#X connect 3 0 1 1;
#X connect 4 0 2 0;
#X connect 4 0 0 1;
#X connect 5 0 0 0;
#X connect 5 0 1 0;
#X restore 150 120 pd switch;
#X obj 210 254 *~;
#X obj 228 232 hsl 128 15 0.01 1 1 0 empty empty Vol 0 -8 0 10 #ffd246
#000000 #000000 3700 1;
#X obj 230 280 tgl 15 0 empty empty empty 17 7 0 10 #fcfcfc #000000
#000000 1 1;
#N canvas 339 250 450 301 switch 0;
#X obj 40 126 *~;
#X obj 70 136 *~;
#X obj 90 80 * -1;
#X obj 90 109 + 1;
#X obj 63 26 inlet;
#X obj 13 26 inlet~;
#X obj 40 190 outlet~;
#X obj 100 190 outlet~;
#X connect 0 0 6 0;
#X connect 1 0 7 0;
#X connect 2 0 3 0;
#X connect 3 0 1 1;
#X connect 4 0 2 0;
#X connect 4 0 0 1;
#X connect 5 0 0 0;
#X connect 5 0 1 0;
#X restore 170 300 pd switch;
#X obj 230 470 *~;
#X obj 248 448 hsl 128 15 0.01 1 1 0 empty empty Vol 0 -8 0 10 #ffd246
#000000 #000000 12700 1;
#X obj 170 520 *~;
#X obj 188 498 hsl 128 15 0.01 1 1 0 empty empty Vol 0 -8 0 10 #ffd246
#000000 #000000 12700 1;
#X connect 0 0 1 0;
#X connect 1 0 4 0;
#X connect 2 0 3 0;
#X connect 3 0 6 0;
#X connect 4 0 2 0;
#X connect 6 0 7 0;
#X connect 8 0 9 0;
#X connect 9 0 22 0;
#X connect 11 0 8 0;
#X connect 12 0 19 0;
#X connect 13 0 10 0;
#X connect 13 0 10 1;
#X connect 14 0 13 1;
#X connect 15 0 16 0;
#X connect 16 0 18 1;
#X connect 17 0 12 1;
#X connect 18 0 27 0;
#X connect 19 0 23 0;
#X connect 20 0 18 2;
#X connect 21 0 22 1;
#X connect 22 0 26 0;
#X connect 22 1 12 0;
#X connect 23 0 26 0;
#X connect 24 0 23 1;
#X connect 25 0 26 1;
#X connect 26 0 29 0;
#X connect 26 1 18 0;
#X connect 27 0 13 0;
#X connect 28 0 27 1;
#X connect 29 0 13 0;
#X connect 30 0 29 1;
